<?xml version="1.0" ?><svg xmlns="http://www.w3.org/2000/svg" xmlns:xlink="http://www.w3.org/1999/xlink" version="1.1" id="design" viewBox="0 0 100 100" style="enable-background:new 0 0 100 100;" xml:space="preserve"><style type="text/css">
	.st0{fill:#FFC431;}
	.st1{fill:#ED8B00;}
	.st2{fill:#FBB040;}
	.st3{fill:#005EB8;}
	.st4{fill:#0F89DB;}
	.st5{fill:#004177;}
</style><g><g><polygon class="st0" points="23.9,32.1 14.1,81.9 14.5,80.2   "/><polygon class="st1" points="67.1,32.1 30.3,32.1 39.8,80.2 40.1,81.9 76.9,81.9   "/><g><polygon class="st2" points="65.5,70.5 50.3,70.5 50.7,72.2 50.8,72.9 66.1,72.9    "/></g><polygon class="st2" points="30.3,32.1 23.9,32.1 14.5,80.2 14.1,81.9 40.1,81.9 39.8,80.2   "/><path class="st1" d="M40.2,81.9h-1.7l-11.3-9.4l-11.3,9.4h-1.7l0.3-1.7L26,70.5V32.1h2.2v38.4l11.5,9.6L40.2,81.9z"/><path class="st3" d="M53.1,32.1H51v-6.5c0-3-2.4-5.4-5.4-5.4c-3,0-5.4,2.4-5.4,5.4v6.5H38v-6.5c0-4.2,3.4-7.6,7.6-7.6    s7.6,3.4,7.6,7.6V32.1z"/><path class="st4" d="M58.6,40.8h-2.2V25.6c0-3-2.4-5.4-5.4-5.4c-3,0-5.4,2.4-5.4,5.4v15.2h-2.2V25.6c0-4.2,3.4-7.6,7.6-7.6    s7.6,3.4,7.6,7.6V40.8z"/></g><g><polygon class="st0" points="52.8,50.8 46.7,81.9 46.9,80.9   "/><polygon class="st3" points="79.8,50.8 56.8,50.8 62.7,80.9 62.9,81.9 85.9,81.9   "/><polygon class="st4" points="56.8,50.8 52.8,50.8 46.9,80.9 46.7,81.9 62.9,81.9 62.7,80.9   "/><path class="st3" d="M63,81.9h-1.1L54.8,76l-7.1,5.9h-1.1l0.2-1.1l7.2-6v-24h1.3v24l7.2,6L63,81.9z"/><path class="st5" d="M71,50.8h-1.3v-4c0-1.9-1.5-3.4-3.4-3.4S63,44.9,63,46.8v4h-1.3v-4c0-2.6,2.1-4.7,4.7-4.7s4.7,2.1,4.7,4.7    V50.8z"/><path class="st5" d="M74.4,56.2h-1.3v-9.5c0-1.9-1.5-3.4-3.4-3.4c-1.9,0-3.4,1.5-3.4,3.4v9.5H65v-9.5c0-2.6,2.1-4.7,4.7-4.7    c2.6,0,4.7,2.1,4.7,4.7V56.2z"/></g></g></svg>